<svg width="40" height="40" viewBox="0 0 40 40" fill="none" xmlns="http://www.w3.org/2000/svg">
<path d="M6 13.3333C6 11.7337 6.00212 10.6346 6.11312 9.809C6.22025 9.01217 6.41203 8.62146 6.68342 8.35007C6.9548 8.07869 7.34552 7.88691 8.14234 7.77978C8.96793 7.66878 10.067 7.66666 11.6667 7.66666H28.3333C29.933 7.66666 31.0321 7.66878 31.8577 7.77978C32.6545 7.88691 33.0452 8.07869 33.3166 8.35007C33.588 8.62146 33.7797 9.01217 33.8869 9.809C33.9979 10.6346 34 11.7337 34 13.3333V27.3333H6V13.3333Z" stroke="#33363F" stroke-width="2"/>
<path d="M6.11111 27.3333C4.94518 27.3333 4 28.2785 4 29.4445C4 31.224 5.44264 32.6667 7.22222 32.6667H32.7778C34.5574 32.6667 36 31.224 36 29.4445C36 28.2785 35.0548 27.3333 33.8889 27.3333H6.11111Z" stroke="#33363F" stroke-width="2"/>
</svg>
